<svg width="37" height="37" viewBox="0 0 37 37" fill="none" xmlns="http://www.w3.org/2000/svg">
<g id="Common/en-img">
<path id="Vector" d="M32.375 4.625H4.625C4.01169 4.625 3.42349 4.86864 2.98982 5.30232C2.55614 5.73599 2.3125 6.32419 2.3125 6.9375V30.0625C2.3125 30.6758 2.55614 31.264 2.98982 31.6977C3.42349 32.1314 4.01169 32.375 4.625 32.375H32.375C32.9883 32.375 33.5765 32.1314 34.0102 31.6977C34.4439 31.264 34.6875 30.6758 34.6875 30.0625V6.9375C34.6875 6.32419 34.4439 5.73599 34.0102 5.30232C33.5765 4.86864 32.9883 4.625 32.375 4.625ZM31.2188 8.09375V20.5812L26.7787 17.9913C26.4442 17.8131 26.0709 17.7199 25.6919 17.7199C25.3128 17.7199 24.9396 17.8131 24.605 17.9913L20.6737 19.8875L13.9906 12.95C13.5584 12.5263 12.9772 12.289 12.3719 12.289C11.7666 12.289 11.1854 12.5263 10.7531 12.95L5.78125 17.575V8.325L31.2188 8.09375ZM5.78125 28.9062V21.9688C5.85299 21.9141 5.93055 21.8676 6.0125 21.83L12.2563 16.0487L21.5063 25.7844C21.6435 25.9958 21.8252 26.1748 22.0387 26.3089C22.2522 26.443 22.4924 26.5289 22.7425 26.5607C22.9926 26.5924 23.2466 26.5693 23.4868 26.4929C23.7271 26.4164 23.9478 26.2885 24.1335 26.1181C24.3193 25.9477 24.4657 25.7388 24.5625 25.506C24.6593 25.2732 24.7042 25.0222 24.694 24.7703C24.6839 24.5184 24.6189 24.2717 24.5037 24.0475C24.3885 23.8232 24.2258 23.6268 24.0269 23.4719L23.125 22.4775L25.4375 21.2981L31.08 24.605V28.9062H5.78125ZM25.0675 12.9731C25.0675 13.5448 24.898 14.1037 24.5803 14.5791C24.2627 15.0544 23.8113 15.4249 23.2831 15.6437C22.7549 15.8625 22.1737 15.9197 21.6129 15.8082C21.0522 15.6967 20.5372 15.4214 20.1329 15.0171C19.7286 14.6128 19.4533 14.0978 19.3418 13.5371C19.2303 12.9763 19.2875 12.3951 19.5063 11.8669C19.7251 11.3387 20.0956 10.8873 20.5709 10.5697C21.0463 10.252 21.6052 10.0825 22.1769 10.0825C22.5573 10.0794 22.9346 10.1521 23.2867 10.2963C23.6388 10.4404 23.9587 10.6532 24.2277 10.9223C24.4968 11.1913 24.7096 11.5112 24.8537 11.8633C24.9979 12.2154 25.0706 12.5927 25.0675 12.9731Z" fill="black"/>
</g>
</svg>
