<svg width="17" height="16" viewBox="0 0 17 16" fill="none" xmlns="http://www.w3.org/2000/svg">
<g id="Component 1">
<path id="Vector" d="M6.30846 15C5.69866 14.9785 5.09919 14.8365 4.54476 14.5824C3.99033 14.3283 3.49195 13.9671 3.07846 13.5197C2.65739 13.1356 2.31635 12.6725 2.07483 12.157C1.83332 11.6414 1.69606 11.0834 1.67091 10.515C1.64576 9.94648 1.7332 9.37863 1.92824 8.84386C2.12329 8.30909 2.42211 7.81789 2.80763 7.39833L7.49213 2.84733C10.2707 0.316772 12.7986 0.746866 14.233 1.99714C14.891 2.50577 15.3578 3.22076 15.5581 4.02658C15.7583 4.83241 15.6802 5.68201 15.3364 6.43812C15.2864 6.52748 15.219 6.606 15.1382 6.66909C15.0574 6.73219 14.9648 6.7786 14.8658 6.8056C14.7668 6.83261 14.6634 6.83967 14.5616 6.82638C14.4599 6.81308 14.3618 6.7797 14.2731 6.72818C14.0889 6.61245 13.9568 6.43014 13.9045 6.21944C13.8521 6.00874 13.8836 5.78602 13.9922 5.59793C14.1331 5.17414 14.1362 4.71683 14.0011 4.29118C13.866 3.86554 13.5996 3.49326 13.2399 3.22741C12.0161 2.22719 10.2306 2.47725 8.53536 4.04759L3.88095 8.55858C2.55685 9.93889 3.43958 11.5592 4.18188 12.3794C4.92418 13.1996 6.52915 14.0698 7.88334 12.6695L11.2839 9.13871C11.411 9.01713 11.512 8.87115 11.581 8.70955C11.6499 8.54796 11.6854 8.37412 11.6851 8.1985C11.6677 7.89067 11.5395 7.59944 11.324 7.37832C11.217 7.26598 11.0874 7.17743 10.9437 7.11848C10.8001 7.05952 10.6455 7.03148 10.4902 7.0362C10.3349 7.04093 10.1824 7.0783 10.0426 7.14587C9.90274 7.21345 9.77882 7.3097 9.67889 7.42833L6.49905 10.7291C6.42952 10.8045 6.34503 10.8648 6.25092 10.906C6.15681 10.9473 6.05515 10.9685 5.95236 10.9685C5.84957 10.9685 5.74791 10.9473 5.6538 10.906C5.55969 10.8648 5.4752 10.8045 5.40567 10.7291C5.25498 10.5774 5.17044 10.3725 5.17044 10.1589C5.17044 9.94541 5.25498 9.74052 5.40567 9.58881L8.58551 6.28808C8.8293 6.01326 9.12885 5.79321 9.46433 5.6425C9.79981 5.49178 10.1636 5.41385 10.5315 5.41385C10.8995 5.41385 11.2633 5.49178 11.5987 5.6425C11.9342 5.79321 12.2338 6.01326 12.4776 6.28808C13.0002 6.82669 13.2882 7.54943 13.2788 8.29882C13.2694 9.04822 12.9634 9.76355 12.4274 10.289L8.98675 13.8097C8.64745 14.1824 8.23414 14.4807 7.77308 14.6856C7.31201 14.8905 6.81325 14.9976 6.30846 15Z" fill="#C06ECC"/>
</g>
</svg>
