<svg width="22" height="22" viewBox="0 0 22 22" fill="none" xmlns="http://www.w3.org/2000/svg">
<g id="Winer">
<path id="Vector" d="M11.0002 6.06504L11.7352 8.45004L12.2152 10.04H16.5952L14.2852 11.81L13.0552 12.755L13.5052 14.255L14.3152 16.895L12.3652 15.395L11.0002 14.345L9.63517 15.395L7.68517 16.895L8.49517 14.255L8.94517 12.755L7.71517 11.81L5.40517 10.04H9.78517L10.2652 8.45004L11.0002 6.06504ZM11.0002 0.500039C10.8126 0.498271 10.6294 0.557197 10.478 0.668029C10.3266 0.778861 10.2151 0.93566 10.1602 1.11504L8.12017 7.79004H1.38517C1.21957 7.8073 1.0622 7.87092 0.931134 7.9736C0.80007 8.07628 0.700629 8.21385 0.644234 8.3705C0.587839 8.52715 0.576777 8.69654 0.61232 8.8592C0.647863 9.02185 0.728569 9.17119 0.845167 9.29004L6.33517 13.595L4.26517 20.375C4.22507 20.5058 4.21637 20.6442 4.23977 20.7789C4.26317 20.9137 4.31801 21.041 4.39983 21.1506C4.48166 21.2602 4.58817 21.3489 4.71072 21.4096C4.83327 21.4704 4.96841 21.5013 5.10517 21.5C5.29441 21.4949 5.47757 21.4321 5.63017 21.32L11.0002 17.18L16.3702 21.305C16.5164 21.4304 16.7025 21.4995 16.8952 21.5C17.0326 21.4989 17.1678 21.4657 17.2902 21.4033C17.4125 21.3408 17.5187 21.2507 17.6002 21.1401C17.6817 21.0294 17.7363 20.9014 17.7597 20.766C17.7832 20.6306 17.7748 20.4916 17.7352 20.36L15.6652 13.595L21.1552 9.36504C21.2718 9.24619 21.3525 9.09685 21.388 8.9342C21.4236 8.77154 21.4125 8.60216 21.3561 8.4455C21.2997 8.28885 21.2003 8.15128 21.0692 8.0486C20.9381 7.94592 20.7808 7.8823 20.6152 7.86504H13.8802L11.8402 1.11504C11.7852 0.93566 11.6737 0.778861 11.5223 0.668029C11.3709 0.557197 11.1878 0.498271 11.0002 0.500039Z" fill="black"/>
</g>
</svg>
